<svg xmlns="http://www.w3.org/2000/svg" width="19.855" height="24.599" viewBox="0 0 19.855 24.599">
  <path id="_928417_access_lock_password_protect_safety_icon" data-name="928417_access_lock_password_protect_safety_icon" d="M41.724,20.836a9.349,9.349,0,0,0,.142-1.609,8.8,8.8,0,1,0-17.595,0,9.332,9.332,0,0,0,.142,1.609,2.742,2.742,0,0,0-1.272,2.315v8.869a2.747,2.747,0,0,0,2.746,2.747H40.249a2.746,2.746,0,0,0,2.746-2.747h0V23.151A2.741,2.741,0,0,0,41.724,20.836ZM34.28,28.579v1.927a1.212,1.212,0,1,1-2.424,0V28.579a2.518,2.518,0,1,1,2.424,0ZM38.518,20.4h-10.9a6.1,6.1,0,0,1-.115-1.178,5.57,5.57,0,1,1,11.129,0A6.086,6.086,0,0,1,38.518,20.4Z" transform="translate(-23.141 -10.167)" fill="#b1b1b1"/>
</svg>
