<svg xmlns="http://www.w3.org/2000/svg" width="94.595" height="126.135" viewBox="0 0 94.595 126.135">
  <g id="_6971196_vote_done_icon" data-name="6971196_vote_done_icon" transform="translate(-7.807 -0.739)">
    <path id="Path_342" data-name="Path 342" d="M73.965,23.565a5.977,5.977,0,0,0-2.44-8.081L45.365,1.444a5.982,5.982,0,0,0-8.081,2.44L17.338,41.053a5.964,5.964,0,0,0,2.44,8.081l26.161,14.03a6,6,0,0,0,8.081-2.437ZM51.839,34.027a79.746,79.746,0,0,0-9.5,8.489,3.039,3.039,0,0,1-5.116-.84c-.82-1.871-3.6-7.208-4.627-9.168a1.085,1.085,0,0,1,.38-1.419c2.789-1.762,6.555,3.065,7.714,4.7a87.543,87.543,0,0,1,7.647-6.644c6.976-5.3,11.938-5.357,14.555-4.758a1.085,1.085,0,0,1,.345,1.971c-2.991,1.927-8.949,5.806-11.4,7.666Z" transform="translate(9.447 0)" fill="#0093dd"/>
    <path id="Path_343" data-name="Path 343" d="M72.4,26.8l29.243,12.246L55.1,58.53,8.557,39.042l25.525-10.69" transform="translate(0 30.498)" fill="none" stroke="#0093dd" stroke-linecap="round" stroke-linejoin="round" stroke-width="1.5"/>
    <line id="Line_7" data-name="Line 7" x1="19.764" y1="8.276" transform="translate(45.216 65.401)" fill="none" stroke="#0093dd" stroke-linecap="round" stroke-linejoin="round" stroke-width="1.5"/>
    <path id="Path_344" data-name="Path 344" d="M8.557,32.438v34.41a4.588,4.588,0,0,0,2.822,4.232L53.331,88.649a4.588,4.588,0,0,0,3.547,0L98.831,71.081a4.588,4.588,0,0,0,2.822-4.232V32.438" transform="translate(0 37.102)" fill="none" stroke="#0093dd" stroke-linecap="round" stroke-linejoin="round" stroke-width="1.5"/>
    <line id="Line_8" data-name="Line 8" y2="37.078" transform="translate(55.098 89.029)" fill="none" stroke="#0093dd" stroke-linecap="round" stroke-linejoin="round" stroke-width="1.5"/>
  </g>
</svg>
