<svg xmlns="http://www.w3.org/2000/svg" width="15.633" height="12.017"><path d="M14.346 1.913h-2.532L10.298.383s-.007-.008-.011-.008l-.008-.007A1.227 1.227 0 0 0 9.405 0H6.254a1.24 1.24 0 0 0-.923.409v.004l-1.482 1.5H1.261C.563 1.913 0 2.461 0 3.16v7.582c0 .698.563 1.264 1.26 1.264h13.086c.694 0 1.26-.566 1.26-1.264V3.159c0-.698-.566-1.246-1.26-1.246Zm-6.543 8.198a3.474 3.474 0 0 1 0-6.948 3.474 3.474 0 0 1 0 6.948Zm6.307-6.19a.528.528 0 0 1-.525-.53c0-.292.236-.529.525-.529.289 0 .525.237.525.53a.528.528 0 0 1-.525.528Z" fill="#b1b1b1" fill-rule="evenodd" data-name="Path 369"/></svg>