<svg xmlns="http://www.w3.org/2000/svg" width="119.839" height="119.983" viewBox="0 0 119.839 119.983">
  <g id="Page-1" transform="translate(-0.45 -0.426)">
    <g id="correct" transform="translate(0.45 0.426)">
      <path id="Shape" d="M34.729,56.379a4.236,4.236,0,0,0-5.99,5.99l19.52,19.52a4.136,4.136,0,0,0,3,1.239h.207a4.721,4.721,0,0,0,3.1-1.549L103.41,23.021A4.251,4.251,0,0,0,96.9,17.547L50.944,72.594Z" transform="translate(0.437 0.087)" fill="#168305"/>
      <path id="Shape-2" data-name="Shape" d="M92.006,9.591a60.03,60.03,0,1,0,19,19,4.2,4.2,0,0,0-7.126,4.441A51.413,51.413,0,1,1,87.565,16.717a4.2,4.2,0,1,0,4.441-7.126Z" transform="translate(-0.45 -0.426)" fill="#168305"/>
    </g>
  </g>
</svg>
