<svg xmlns="http://www.w3.org/2000/svg" width="24.021" height="23.025" viewBox="0 0 24.021 23.025">
  <g id="Group_861" data-name="Group 861" transform="translate(-21182.002 -15022.999)">
    <path id="Path_479" data-name="Path 479" d="M34.5,39.959a.751.751,0,0,0-.629-.163L21.626,42.1a.765.765,0,0,0-.625.754V59.737a.766.766,0,0,0,.625.754l12.246,2.3a.731.731,0,0,0,.141.014.766.766,0,0,0,.765-.768V40.55A.766.766,0,0,0,34.5,39.959ZM31.455,54.941a.761.761,0,0,1-1.08-.073l-2.226-2.55L26.2,54.835a.762.762,0,0,1-.6.3.766.766,0,0,1-.6-1.239l2.134-2.751-2.1-2.413a.767.767,0,0,1,.072-1.082.76.76,0,0,1,1.079.072l1.91,2.188,2.267-2.923a.767.767,0,1,1,1.208.944l-2.448,3.156,2.421,2.773A.768.768,0,0,1,31.455,54.941Z" transform="translate(21161 14983.218)" fill="#fff"/>
    <path id="Path_480" data-name="Path 480" d="M299.7,97.457h-9.95v3.07h2.3a.767.767,0,0,1,0,1.535h-2.3V103.6h2.3a.767.767,0,0,1,0,1.535h-2.3v1.535h2.3a.767.767,0,0,1,0,1.535h-2.3v1.535h2.3a.768.768,0,0,1,0,1.535h-2.3v3.07h9.95a.767.767,0,0,0,.765-.768V98.224A.767.767,0,0,0,299.7,97.457Zm-3.062,13.815H295.1a.768.768,0,0,1,0-1.535h1.531a.768.768,0,0,1,0,1.535Zm0-3.07H295.1a.767.767,0,0,1,0-1.535h1.531a.767.767,0,0,1,0,1.535Zm0-3.07H295.1a.767.767,0,0,1,0-1.535h1.531a.767.767,0,0,1,0,1.535Zm0-3.07H295.1a.767.767,0,0,1,0-1.535h1.531a.767.767,0,0,1,0,1.535Z" transform="translate(20905.563 14928.613)" fill="#fff"/>
  </g>
</svg>
