<svg xmlns="http://www.w3.org/2000/svg" width="21.407" height="25.9" viewBox="0 0 21.407 25.9">
  <path id="Path_308" data-name="Path 308" d="M34.18,20A10.505,10.505,0,0,0,23.5,30.261a10.437,10.437,0,0,0,8.022,9.948l2.145,5.332a.563.563,0,0,0,.56.358h0a.607.607,0,0,0,.56-.358l2.005-5.288a10.394,10.394,0,0,0,8.115-9.948A10.554,10.554,0,0,0,34.18,20Zm6.343,10.53-1.912-1.21v5.556H29.8V29.32l-1.912,1.21L27,29.276l6.763-4.212a.722.722,0,0,1,.839,0l6.763,4.212Z" transform="translate(-23.5 -20)" fill="#e61c1c"/>
</svg>
