<svg xmlns="http://www.w3.org/2000/svg" width="19.883" height="24.617" viewBox="164.05 421.9 19.883 24.617"><path d="M182.646 432.585a9.35 9.35 0 0 0 .141-1.61c0-4.994-3.946-9.059-8.797-9.059-4.85 0-8.797 4.065-8.797 9.06 0 .55.05 1.086.142 1.61a2.742 2.742 0 0 0-1.272 2.314v8.869a2.747 2.747 0 0 0 2.746 2.746h14.362a2.746 2.746 0 0 0 2.746-2.746v-8.87c0-.973-.507-1.826-1.271-2.314Zm-7.444 7.744v1.927a1.212 1.212 0 1 1-2.424 0v-1.928a2.517 2.517 0 0 1 1.212-4.724 2.518 2.518 0 0 1 1.212 4.725Zm4.238-8.176h-10.9a6.103 6.103 0 0 1-.114-1.177c0-3.213 2.496-5.827 5.564-5.827s5.564 2.614 5.564 5.827c0 .403-.039.797-.114 1.177Z" fill="#b1b1b1" fill-rule="evenodd" data-name="928417_access_lock_password_protect_safety_icon"/></svg>