<svg xmlns="http://www.w3.org/2000/svg" width="105.787" height="107.845" viewBox="0 0 105.787 107.845">
  <g id="_6613287_and_locked_padlock_password_protection_icon" data-name="6613287_and_locked_padlock_password_protection_icon" transform="translate(0.029 1.5)">
    <path id="Path_364" data-name="Path 364" d="M48.577,39.862H17.715A7.738,7.738,0,0,1,10,32.146V16.715A7.738,7.738,0,0,1,17.715,9H48.577a7.738,7.738,0,0,1,7.715,7.715V32.146A7.738,7.738,0,0,1,48.577,39.862Z" transform="translate(19.718 22.862)" fill="none" stroke="#0093dd" stroke-linecap="round" stroke-linejoin="round" stroke-miterlimit="10" stroke-width="5"/>
    <path id="Path_365" data-name="Path 365" d="M42.862,31.862H12V16.431A15.476,15.476,0,0,1,27.431,1h0A15.476,15.476,0,0,1,42.862,16.431Z" transform="translate(25.434)" fill="none" stroke="#0093dd" stroke-linecap="round" stroke-linejoin="round" stroke-miterlimit="10" stroke-width="5"/>
    <line id="Line_16" data-name="Line 16" y2="7.715" transform="translate(52.865 43.435)" fill="none" stroke="#0093dd" stroke-linecap="round" stroke-linejoin="round" stroke-miterlimit="10" stroke-width="5"/>
    <line id="Line_17" data-name="Line 17" y2="11.573" transform="translate(52.865 82.013)" fill="none" stroke="#0093dd" stroke-linecap="round" stroke-linejoin="round" stroke-miterlimit="10" stroke-width="5"/>
    <line id="Line_18" data-name="Line 18" x2="11.187" y2="3.472" transform="translate(41.677 90.114)" fill="none" stroke="#0093dd" stroke-linecap="round" stroke-linejoin="round" stroke-miterlimit="10" stroke-width="5"/>
    <line id="Line_19" data-name="Line 19" y1="9.259" x2="6.944" transform="translate(45.921 93.586)" fill="none" stroke="#0093dd" stroke-linecap="round" stroke-linejoin="round" stroke-miterlimit="10" stroke-width="5"/>
    <line id="Line_20" data-name="Line 20" x1="6.944" y1="9.259" transform="translate(52.865 93.586)" fill="none" stroke="#0093dd" stroke-linecap="round" stroke-linejoin="round" stroke-miterlimit="10" stroke-width="5"/>
    <line id="Line_21" data-name="Line 21" x1="11.187" y2="3.472" transform="translate(52.865 90.114)" fill="none" stroke="#0093dd" stroke-linecap="round" stroke-linejoin="round" stroke-miterlimit="10" stroke-width="5"/>
    <line id="Line_22" data-name="Line 22" y2="11.573" transform="translate(91.442 82.013)" fill="none" stroke="#0093dd" stroke-linecap="round" stroke-linejoin="round" stroke-miterlimit="10" stroke-width="5"/>
    <line id="Line_23" data-name="Line 23" x2="11.187" y2="3.472" transform="translate(80.255 90.114)" fill="none" stroke="#0093dd" stroke-linecap="round" stroke-linejoin="round" stroke-miterlimit="10" stroke-width="5"/>
    <line id="Line_24" data-name="Line 24" y1="9.259" x2="6.944" transform="translate(84.498 93.586)" fill="none" stroke="#0093dd" stroke-linecap="round" stroke-linejoin="round" stroke-miterlimit="10" stroke-width="5"/>
    <line id="Line_25" data-name="Line 25" x1="6.944" y1="9.259" transform="translate(91.442 93.586)" fill="none" stroke="#0093dd" stroke-linecap="round" stroke-linejoin="round" stroke-miterlimit="10" stroke-width="5"/>
    <line id="Line_26" data-name="Line 26" x1="11.187" y2="3.472" transform="translate(91.442 90.114)" fill="none" stroke="#0093dd" stroke-linecap="round" stroke-linejoin="round" stroke-miterlimit="10" stroke-width="5"/>
    <line id="Line_27" data-name="Line 27" y2="11.573" transform="translate(14.287 82.013)" fill="none" stroke="#0093dd" stroke-linecap="round" stroke-linejoin="round" stroke-miterlimit="10" stroke-width="5"/>
    <line id="Line_28" data-name="Line 28" x2="11.187" y2="3.472" transform="translate(3.1 90.114)" fill="none" stroke="#0093dd" stroke-linecap="round" stroke-linejoin="round" stroke-miterlimit="10" stroke-width="5"/>
    <line id="Line_29" data-name="Line 29" y1="9.259" x2="6.944" transform="translate(7.344 93.586)" fill="none" stroke="#0093dd" stroke-linecap="round" stroke-linejoin="round" stroke-miterlimit="10" stroke-width="5"/>
    <line id="Line_30" data-name="Line 30" x1="6.944" y1="9.259" transform="translate(14.287 93.586)" fill="none" stroke="#0093dd" stroke-linecap="round" stroke-linejoin="round" stroke-miterlimit="10" stroke-width="5"/>
    <line id="Line_31" data-name="Line 31" x1="11.187" y2="3.472" transform="translate(14.287 90.114)" fill="none" stroke="#0093dd" stroke-linecap="round" stroke-linejoin="round" stroke-miterlimit="10" stroke-width="5"/>
  </g>
</svg>
