<svg xmlns="http://www.w3.org/2000/svg" width="24.5" height="24.733" viewBox="0.983 0.983 24.5 24.733"><g data-name="CompositeLayer"><path d="M11.707 18.353H3.833a1.186 1.186 0 1 1 0-2.372h7.874v-1.647H3.833a2.833 2.833 0 0 0 0 5.667h7.874v-1.648Z" fill="#b1b1b1" fill-rule="evenodd" data-name="Path 298"/><path d="M18.246 24.588a5.049 5.049 0 0 0-4.068-3.755v-6.655a9.06 9.06 0 0 0 8.236-9.06.824.824 0 0 0-.824-.824H5.118a.824.824 0 0 0-.824.824 9.06 9.06 0 0 0 8.237 9.06v6.696a5.049 5.049 0 0 0-4.07 3.755v.1a.824.824 0 0 0 .15.707c.159.177.387.276.625.272h8.236a.824.824 0 0 0 .65-.313c.157-.2.212-.462.15-.708l-.026-.099Z" fill="#b1b1b1" fill-rule="evenodd" data-name="Path 297"/><path d="M18.222 1h-2.817a8.846 8.846 0 0 0-4.242 1.079.824.824 0 1 0 .783 1.45 7.248 7.248 0 0 1 3.459-.882h2.817a5.848 5.848 0 0 1 0 11.687h-3.22v1.647h3.22a7.495 7.495 0 0 0 0-14.981Z" fill="#b1b1b1" fill-rule="evenodd" data-name="Path 300"/></g></svg>