<svg id="pharmacy" xmlns="http://www.w3.org/2000/svg" width="24.468" height="24.709" viewBox="0 0 24.468 24.709">
  <path id="Path_298" data-name="Path 298" d="M11.707,21.209H3.833a1.186,1.186,0,1,1,0-2.372h7.874V17.19H3.833a2.833,2.833,0,1,0,0,5.666h7.874Z" transform="translate(-1 -3.856)" fill="#a7cc3a"/>
  <path id="Path_299" data-name="Path 299" d="M18.881,22.07H18v1.647h.881a7.091,7.091,0,0,1,5.04,2.084.821.821,0,1,0,1.161-1.161,8.706,8.706,0,0,0-6.2-2.57Z" transform="translate(-3.999 -4.717)" fill="#a7cc3a"/>
  <path id="Path_300" data-name="Path 300" d="M20.305,1H17.489a8.846,8.846,0,0,0-4.242,1.079.824.824,0,1,0,.782,1.45,7.248,7.248,0,0,1,3.459-.881h2.817a5.848,5.848,0,0,1,0,11.687h-3.22v1.647h3.22A7.495,7.495,0,0,0,20.305,1Z" transform="translate(-3.084 -1)" fill="#a7cc3a"/>
  <g id="Component_59_1" data-name="Component 59 – 1" transform="translate(3.294 3.295)">
    <path id="Path_297" data-name="Path 297" d="M18.952,25.294a5.049,5.049,0,0,0-4.069-3.756V14.883a9.06,9.06,0,0,0,8.236-9.06A.824.824,0,0,0,22.3,5H5.824A.824.824,0,0,0,5,5.824a9.06,9.06,0,0,0,8.236,9.06v6.7a5.049,5.049,0,0,0-4.069,3.756v.1a.765.765,0,0,0,.774.98h8.236a.817.817,0,0,0,.8-1.021Z" transform="translate(-5 -5)" fill="#a7cc3a"/>
  </g>
</svg>
