<svg xmlns="http://www.w3.org/2000/svg" width="29.617" height="23.917" viewBox="353.45 324.967 29.617 23.917"><path d="M354.941 335.457h23.05l-7.933-7.933a1.479 1.479 0 1 1 2.092-2.09l10.456 10.456c.07.069.13.145.184.225.025.038.043.078.064.117.024.046.053.09.072.138.021.05.033.101.048.153.012.041.028.08.036.122.02.097.03.194.03.291v.003c-.001.096-.01.192-.03.286-.008.045-.025.086-.038.13-.014.048-.026.098-.046.146-.021.051-.05.098-.076.146-.02.037-.036.074-.06.108a1.457 1.457 0 0 1-.184.227l-10.457 10.456a1.48 1.48 0 0 1-2.091-2.091l7.932-7.932h-23.049a1.479 1.479 0 0 1 0-2.958Z" fill="#a7cc3a" fill-rule="evenodd" data-name="227604_down_arrow_icon"/></svg>