<svg xmlns="http://www.w3.org/2000/svg" width="25.541" height="27.064" viewBox="0 0 25.541 27.064">
  <g id="Download_from_cloud" transform="translate(-20.082 -22.29)">
    <path id="Path_439" data-name="Path 439" d="M27.906,26.193a5.454,5.454,0,0,1,9.892,0,2.4,2.4,0,0,0,2.168,1.382h.021A4.888,4.888,0,0,1,44.876,32.5a4.781,4.781,0,0,1-.4,1.893.373.373,0,1,0,.684.3,5.524,5.524,0,0,0,.465-2.187,5.635,5.635,0,0,0-5.634-5.677h-.02a1.65,1.65,0,0,1-1.492-.95,6.2,6.2,0,0,0-11.247,0,1.65,1.65,0,0,1-1.493.95h-.019A5.635,5.635,0,1,0,25.783,38.1h2.385a.373.373,0,0,0,0-.747H25.783a4.888,4.888,0,1,1-.066-9.776h.02A2.4,2.4,0,0,0,27.906,26.193Z" transform="translate(0)" fill="#fff"/>
    <path id="Path_440" data-name="Path 440" d="M56.585,132.9a3.819,3.819,0,0,0-3.819,3.848.373.373,0,0,0,.373.371h0a.373.373,0,0,0,.371-.376,3.073,3.073,0,0,1,3.072-3.1h.021a.373.373,0,0,0,0-.747Z" transform="translate(-30.806 -104.258)" fill="#fff"/>
    <path id="Path_441" data-name="Path 441" d="M267.587,225.1a.584.584,0,0,0,.133.648l2.821,2.777a.6.6,0,0,0,.831,0l2.821-2.777a.594.594,0,0,0-.416-1.017H272.73a.228.228,0,0,1-.228-.228v-3.633a.7.7,0,0,0-.7-.7h-1.7a.7.7,0,0,0-.7.7V224.5a.228.228,0,0,1-.228.228h-1.047A.584.584,0,0,0,267.587,225.1Z" transform="translate(-233.244 -186.517)" fill="#fff"/>
    <path id="Path_442" data-name="Path 442" d="M293.4,188.23h3.044a.373.373,0,1,0,0-.747H293.4a.373.373,0,0,0,0,.747Z" transform="translate(-257.27 -155.704)" fill="#fff"/>
    <path id="Path_443" data-name="Path 443" d="M293.4,163.571h3.044a.373.373,0,1,0,0-.747H293.4a.373.373,0,0,0,0,.747Z" transform="translate(-257.27 -132.461)" fill="#fff"/>
    <path id="Path_444" data-name="Path 444" d="M206.618,260.942h-2.6a.373.373,0,1,0,0,.747h2.6a.48.48,0,0,1,.479.479v6.889H193.308v-6.889a.48.48,0,0,1,.479-.479h2.942a.373.373,0,0,0,0-.747h-2.942a1.227,1.227,0,0,0-1.226,1.226v8.1a1.227,1.227,0,0,0,1.226,1.226h5.325a.316.316,0,1,1,0,.632h-1.03v1.421h-.589a.373.373,0,0,0,0,.747h5.42a.373.373,0,1,0,0-.747h-.681v-1.939a.115.115,0,0,1,.115-.115h4.272a1.227,1.227,0,0,0,1.226-1.226v-8.1A1.227,1.227,0,0,0,206.618,260.942Z" transform="translate(-162.572 -224.943)" fill="#fff"/>
  </g>
</svg>
